<svg width="24" height="24" viewBox="0 0 24 24" fill="none" xmlns="http://www.w3.org/2000/svg">
<path d="M10.3411 9.5C9.53274 8.96254 8.99999 8.04349 8.99999 7C8.99999 5.34315 10.3431 4 12 4C13.5953 4 14.8998 5.24523 14.9945 6.81674M9.00549 12.1867C8.13586 12.618 7.07356 12.6199 6.16987 12.0981C4.735 11.2697 4.24337 9.43495 5.0718 8.00007C5.86946 6.61848 7.60009 6.11139 9.00841 6.81513M10.6644 14.6867C10.6031 15.6555 10.0735 16.5764 9.16984 17.0981C7.73496 17.9266 5.90019 17.4349 5.07177 16.0001C4.27411 14.6185 4.70027 12.8662 6.01389 11.9984M13.3356 9.31328C13.3969 8.3445 13.9264 7.4236 14.8301 6.90186C16.265 6.07343 18.0998 6.56505 18.9282 7.99993C19.7258 9.38152 19.2997 11.1338 17.9861 12.0016M14.9945 11.8133C15.8641 11.382 16.9265 11.3801 17.8301 11.9019C19.265 12.7303 19.7566 14.5651 18.9282 15.9999C18.1306 17.3815 16.3999 17.8886 14.9916 17.1849M13.6589 14.5C14.4673 15.0375 15 15.9565 15 17C15 18.6569 13.6569 20 12 20C10.4047 20 9.10022 18.7548 9.00553 17.1833M15 12C15 13.6569 13.6568 15 12 15C10.3431 15 8.99999 13.6569 8.99999 12C8.99999 10.3431 10.3431 9 12 9C13.6568 9 15 10.3431 15 12Z" stroke="black" stroke-width="2" stroke-linecap="round" stroke-linejoin="round"/>
</svg>
