<svg width="24" height="24" viewBox="0 0 24 24" fill="none" xmlns="http://www.w3.org/2000/svg">
<path d="M2.99997 20L8.11089 14.8891C10.2588 12.7412 13.7412 12.7412 15.8891 14.8891L21 20M7.00009 9C8.10466 9 9.00009 8.10457 9.00009 7C9.00009 5.89543 8.10466 5 7.00009 5M7.00009 9C5.89552 9 5.00009 8.10457 5.00009 7C5.00009 5.89543 5.89552 5 7.00009 5M7.00009 9V11M7.00009 5V3M8.73215 8L10.4642 9M3.53611 5L5.26816 6M8.73215 6L10.4642 5M3.53611 9L5.26816 8" stroke="black" stroke-width="2" stroke-linecap="round" stroke-linejoin="round"/>
</svg>
