<svg width="24" height="24" viewBox="0 0 24 24" fill="none" xmlns="http://www.w3.org/2000/svg">
<g clip-path="url(#clip0_2497_26327)">
<rect x="9.02783" y="9.46191" width="5.94458" height="5.94458" rx="2.97229" stroke="black" stroke-width="2"/>
<path d="M6.73456 5.08623L6.73402 5.08654C6.30798 5.32999 6.16022 5.88463 6.4041 6.30672L5.53836 6.80692L6.40341 6.30553C6.96493 7.27431 7.14253 8.3855 6.60456 9.31904C6.06668 10.2524 5.01665 10.6556 3.89905 10.6556C3.40528 10.6556 3 11.064 3 11.5546V13.3137C3 13.8044 3.40528 14.2128 3.89905 14.2128C5.01665 14.2128 6.06668 14.6159 6.60456 15.5493C7.14239 16.4826 6.96502 17.5935 6.40385 18.5621C6.16032 18.9841 6.30812 19.5385 6.73402 19.7818L6.73456 19.7821L8.4637 20.7716L8.47831 20.7802C8.77292 20.9555 9.1842 20.8637 9.38404 20.5327L9.4904 20.3489L9.49065 20.3485C10.0519 19.3802 10.9272 18.6731 12.0037 18.6731C13.0811 18.6731 13.954 19.3809 14.5105 20.3505C14.5109 20.3512 14.5113 20.3519 14.5117 20.3526L14.616 20.5326C14.8158 20.8637 15.2271 20.9555 15.5217 20.7802L15.5363 20.7716L17.2654 19.7821L17.266 19.7818C17.6901 19.5395 17.8417 18.9945 17.5947 18.5597C17.0347 17.5916 16.8581 16.4818 17.3954 15.5493C17.9333 14.6159 18.9834 14.2128 20.101 14.2128C20.5947 14.2128 21 13.8044 21 13.3137V11.5546C21 11.0609 20.5916 10.6556 20.101 10.6556C18.9834 10.6556 17.9333 10.2524 17.3954 9.31904C16.8576 8.38581 17.035 7.27504 17.596 6.30648M6.73456 5.08623L18.4618 6.807M6.73456 5.08623L8.4637 4.09672L8.47831 4.08819C8.77293 3.91291 9.18423 4.00468 9.38406 4.33576M6.73456 5.08623L9.38406 4.33576M17.596 6.30648C17.5962 6.30616 17.5964 6.30585 17.5966 6.30553L18.4618 6.807M17.596 6.30648C17.596 6.30656 17.5959 6.30664 17.5959 6.30672L18.4618 6.807M17.596 6.30648C17.8397 5.88442 17.6919 5.32994 17.266 5.08653L17.2654 5.08623L15.5363 4.09672L15.5217 4.08819C15.2271 3.91292 14.8158 4.00467 14.616 4.33572M18.4618 6.807C18.9815 5.90745 18.6717 4.73803 17.7621 4.21829L16.033 3.22879C15.2434 2.75902 14.2239 3.03888 13.7541 3.82849M14.616 4.33572L14.6195 4.32952L13.7541 3.82849M14.616 4.33572L14.5096 4.51943L14.5094 4.51986C13.9481 5.48821 13.0728 6.1953 11.9963 6.1953C10.9189 6.1953 10.0459 5.48733 9.48937 4.51766M14.616 4.33572C14.6151 4.33707 14.6143 4.33842 14.6135 4.33978L13.7541 3.82849M13.7541 3.82849L13.6442 4.01839M10.3558 4.01839C11.2554 5.58761 12.7346 5.58761 13.6442 4.01839M10.3558 4.01839L10.2459 3.82849C9.77611 3.03888 8.75662 2.75902 7.96702 3.22879L13.6442 4.01839M10.3558 4.01839L9.48826 4.51572C9.48863 4.51637 9.489 4.51702 9.48937 4.51766M10.3558 4.01839L9.4904 4.51943L9.48937 4.51766M13.6442 4.01839L9.48937 4.51766M9.48937 4.51766L9.38406 4.33576M9.48937 4.51766L9.38406 4.33576" stroke="black" stroke-width="2" stroke-miterlimit="10" stroke-linecap="round" stroke-linejoin="round"/>
</g>
<defs>
<clipPath id="clip0_2497_26327">
<rect width="24" height="24" fill="white"/>
</clipPath>
</defs>
</svg>
