<svg width="24" height="24" viewBox="0 0 24 24" fill="none" xmlns="http://www.w3.org/2000/svg">
<path d="M6.08167 10C6.08167 9.44772 6.52938 9 7.08167 9H9.08167C9.63395 9 10.0817 9.44772 10.0817 10V12C10.0817 12.5523 9.63395 13 9.08167 13H7.08167C6.52938 13 6.08167 12.5523 6.08167 12V10Z" fill="black"/>
<path d="M8.68492 22.9598L8.55842 23.9518L8.68492 22.9598ZM4.22443 18.568L3.23804 18.7324L4.22443 18.568ZM4.49368 19.9392L5.45136 19.6514L4.49368 19.9392ZM15.8684 18.568L14.882 18.4036L15.8684 18.568ZM15.5992 19.9392L14.6415 19.6514L15.5992 19.9392ZM11.4786 22.9598L11.6051 23.9518L11.4786 22.9598ZM13.6622 5.73602L13.9658 4.78322L13.6622 5.73602ZM16.7312 13.3912L15.7448 13.2268L16.7312 13.3912ZM17.0929 9.78579L18.0826 9.64295L17.0929 9.78579ZM6.43067 5.73602L6.12706 4.78322L6.43067 5.73602ZM3.36162 13.3912L4.34801 13.2268L3.36162 13.3912ZM3 9.78579L2.01025 9.64295L3 9.78579ZM7.04643 12.5C7.04643 13.0523 7.49414 13.5 8.04643 13.5C8.59871 13.5 9.04643 13.0523 9.04643 12.5H7.04643ZM8.04643 6.5H9.04643H8.04643ZM9.18731 3.44721C9.4343 3.94119 10.035 4.14142 10.529 3.89443C11.0229 3.64744 11.2232 3.04677 10.9762 2.55279L9.18731 3.44721ZM10.029 2.89443L10.9234 2.44721L10.9234 2.44721L10.029 2.89443ZM10.029 1.10557L9.13453 0.658359L9.13453 0.65836L10.029 1.10557ZM10.9762 1.44721C11.2232 0.953237 11.0229 0.352563 10.529 0.105573C10.035 -0.141416 9.4343 0.0588071 9.18731 0.552785L10.9762 1.44721ZM5.18731 2.55279C4.94032 3.04676 5.14055 3.64744 5.63453 3.89443C6.1285 4.14142 6.72918 3.94119 6.97617 3.44721L5.18731 2.55279ZM6.13453 2.89443L5.2401 2.44721L5.2401 2.44721L6.13453 2.89443ZM6.13453 1.10557L5.2401 1.55279L5.2401 1.55279L6.13453 1.10557ZM6.97617 0.552787C6.72918 0.0588081 6.1285 -0.141416 5.63453 0.105573C5.14055 0.352562 4.94032 0.953235 5.18731 1.44721L6.97617 0.552787ZM13.1873 2.55278C12.9403 3.04676 13.1405 3.64743 13.6345 3.89442C14.1285 4.14142 14.7292 3.9412 14.9762 3.44722L13.1873 2.55278ZM14.1345 2.89443L15.029 3.34165L15.029 3.34164L14.1345 2.89443ZM14.1345 1.10557L13.2401 1.55278L13.2401 1.55279L14.1345 1.10557ZM14.9762 0.552788C14.7292 0.0588092 14.1285 -0.141416 13.6345 0.105572C13.1405 0.35256 12.9403 0.953233 13.1873 1.44721L14.9762 0.552788ZM8.04643 5.51877L8.01095 4.5194L8.04643 5.51877ZM5.21082 18.4036L4.34801 13.2268L2.37522 13.5556L3.23804 18.7324L5.21082 18.4036ZM10.0817 22C9.33129 22 9.04783 21.998 8.81141 21.9679L8.55842 23.9518C8.95191 24.002 9.3897 24 10.0817 24V22ZM3.23804 18.7324C3.35181 19.4151 3.42183 19.8472 3.53601 20.2271L5.45136 19.6514C5.38275 19.4231 5.3342 19.1439 5.21082 18.4036L3.23804 18.7324ZM8.81141 21.9679C7.04681 21.7429 5.8582 21.005 5.45136 19.6514L3.53601 20.2271C4.2661 22.6561 6.40499 23.6772 8.55842 23.9518L8.81141 21.9679ZM14.882 18.4036C14.7587 19.1439 14.7101 19.4231 14.6415 19.6514L16.5568 20.2271C16.671 19.8472 16.741 19.4151 16.8548 18.7324L14.882 18.4036ZM10.0817 24C10.7738 24 11.2116 24.002 11.6051 23.9518L11.3521 21.9679C11.1156 21.998 10.8322 22 10.0817 22V24ZM14.6415 19.6514C14.2304 21.0192 13.0959 21.7455 11.3521 21.9679L11.6051 23.9518C13.7792 23.6746 15.831 22.6419 16.5568 20.2271L14.6415 19.6514ZM10.0464 6.5C12.0441 6.5 12.8043 6.51219 13.3586 6.68882L13.9658 4.78322C13.0387 4.48781 11.8821 4.5 10.0464 4.5V6.5ZM13.3586 6.68882C14.8184 7.154 15.8843 8.41219 16.1031 9.92863L18.0826 9.64295C17.7543 7.36828 16.1555 5.48099 13.9658 4.78322L13.3586 6.68882ZM4.34801 13.2268C4.01959 11.2562 3.90665 10.5044 3.98975 9.92863L2.01025 9.64295C1.87127 10.606 2.07343 11.7448 2.37522 13.5556L4.34801 13.2268ZM6.12706 4.78322C3.93731 5.48099 2.33854 7.36828 2.01025 9.64295L3.98975 9.92863C4.2086 8.41219 5.27445 7.154 6.73428 6.68882L6.12706 4.78322ZM19.0464 14.5C19.0464 15.6046 18.151 16.5 17.0464 16.5V18.5C19.2556 18.5 21.0464 16.7091 21.0464 14.5H19.0464ZM17.0464 12.5C18.151 12.5 19.0464 13.3954 19.0464 14.5H21.0464C21.0464 12.2909 19.2556 10.5 17.0464 10.5V12.5ZM9.04643 12.5L9.04643 6.5H7.04643L7.04643 12.5H9.04643ZM10.9762 2.55279L10.9234 2.44721L9.13453 3.34164L9.18731 3.44721L10.9762 2.55279ZM10.9234 1.55279L10.9762 1.44721L9.18731 0.552785L9.13453 0.658359L10.9234 1.55279ZM10.9234 2.44721C10.7826 2.16569 10.7826 1.83431 10.9234 1.55279L9.13453 0.65836C8.71223 1.50294 8.71224 2.49706 9.13453 3.34164L10.9234 2.44721ZM6.97617 3.44721L7.02895 3.34164L5.2401 2.44721L5.18731 2.55279L6.97617 3.44721ZM7.02895 0.658359L6.97617 0.552787L5.18731 1.44721L5.2401 1.55279L7.02895 0.658359ZM7.02895 3.34164C7.45124 2.49706 7.45124 1.50294 7.02895 0.658359L5.2401 1.55279C5.38086 1.83431 5.38086 2.16569 5.2401 2.44721L7.02895 3.34164ZM14.9762 3.44722L15.029 3.34165L13.2401 2.44721L13.1873 2.55278L14.9762 3.44722ZM15.029 0.658361L14.9762 0.552788L13.1873 1.44721L13.2401 1.55278L15.029 0.658361ZM15.029 3.34164C15.4512 2.49706 15.4512 1.50294 15.029 0.658359L13.2401 1.55279C13.3809 1.83431 13.3809 2.16569 13.2401 2.44721L15.029 3.34164ZM17.7176 13.5555C17.845 12.7913 17.9502 12.1608 18.0213 11.6337L16.0393 11.3663C15.9732 11.8558 15.8741 12.4514 15.7448 13.2268L17.7176 13.5555ZM18.0213 11.6337C18.124 10.8722 18.169 10.2414 18.0826 9.64295L16.1031 9.92863C16.1484 10.2424 16.1362 10.6475 16.0393 11.3663L18.0213 11.6337ZM17.0464 10.5H17.0303V12.5H17.0464V10.5ZM17.0464 16.5C16.8176 16.5 16.5997 16.462 16.3975 16.3927L15.7491 18.2846C16.1572 18.4245 16.594 18.5 17.0464 18.5V16.5ZM15.7448 13.2268L15.0869 17.1743L17.0597 17.5031L17.7176 13.5555L15.7448 13.2268ZM15.0869 17.1743L14.882 18.4036L16.8548 18.7324L17.0597 17.5031L15.0869 17.1743ZM10.0464 4.5C9.2288 4.5 8.56141 4.49986 8.01095 4.5194L8.08191 6.51814C8.58885 6.50014 9.21552 6.5 10.0464 6.5V4.5ZM8.01095 4.5194C7.28469 4.54518 6.68189 4.60643 6.12706 4.78322L6.73428 6.68882C7.02377 6.59657 7.40671 6.54211 8.08191 6.51814L8.01095 4.5194ZM9.04643 6.5V5.51877H7.04643V6.5H9.04643Z" fill="black"/>
</svg>
