<svg width="24" height="24" viewBox="0 0 24 24" fill="none" xmlns="http://www.w3.org/2000/svg">
<path d="M8.68508 20.9598L8.55859 21.9518L8.68508 20.9598ZM4.25991 16.068L5.2463 15.9036L4.25991 16.068ZM4.52916 17.4392L5.48684 17.1514L4.52916 17.4392ZM15.9039 16.068L16.8903 16.2324L15.9039 16.068ZM15.6346 17.4392L14.677 17.1514L15.6346 17.4392ZM11.4787 20.9598L11.6052 21.9518L11.4787 20.9598ZM13.6977 3.23602L14.0013 2.28322L13.6977 3.23602ZM16.7667 10.8912L15.7803 10.7268L16.7667 10.8912ZM17.1283 7.28579L18.1181 7.14295L17.1283 7.28579ZM6.46615 3.23602L6.16254 2.28322L6.46615 3.23602ZM3.3971 10.8912L2.4107 11.0556L3.3971 10.8912ZM3.03548 7.28579L2.04573 7.14295L3.03548 7.28579ZM6.13899 16.0825C6.23489 16.6264 6.75355 16.9896 7.29744 16.8937C7.84134 16.7978 8.2045 16.2791 8.1086 15.7352L6.13899 16.0825ZM7.06671 9.82635C6.97081 9.28246 6.45215 8.91929 5.90826 9.01519C5.36436 9.1111 5.00119 9.62975 5.0971 10.1736L7.06671 9.82635ZM15.7803 10.7268L14.9175 15.9036L16.8903 16.2324L17.7531 11.0555L15.7803 10.7268ZM5.2463 15.9036L4.38349 10.7268L2.4107 11.0556L3.27352 16.2324L5.2463 15.9036ZM10.0819 20C9.33145 20 9.048 19.998 8.81157 19.9679L8.55859 21.9518C8.95207 22.002 9.38986 22 10.0819 22V20ZM3.27352 16.2324C3.38729 16.9151 3.45731 17.3472 3.57149 17.7271L5.48684 17.1514C5.41823 16.9231 5.36968 16.6439 5.2463 15.9036L3.27352 16.2324ZM8.81157 19.9679C7.24436 19.768 5.94161 18.6644 5.48684 17.1514L3.57149 17.7271C4.25365 19.9966 6.20777 21.652 8.55859 21.9518L8.81157 19.9679ZM14.9175 15.9036C14.7941 16.6439 14.7456 16.9231 14.677 17.1514L16.5923 17.7271C16.7065 17.3472 16.7765 16.9151 16.8903 16.2324L14.9175 15.9036ZM10.0819 22C10.7739 22 11.2117 22.002 11.6052 21.9518L11.3522 19.9679C11.1158 19.998 10.8324 20 10.0819 20V22ZM14.677 17.1514C14.2222 18.6644 12.9194 19.768 11.3522 19.9679L11.6052 21.9518C13.956 21.652 15.9102 19.9966 16.5923 17.7271L14.677 17.1514ZM10.0819 4C12.0796 4 12.8398 4.01219 13.394 4.18882L14.0013 2.28322C13.0742 1.98781 11.9176 2 10.0819 2V4ZM17.7531 11.0555C18.0549 9.24482 18.2571 8.10598 18.1181 7.14295L16.1386 7.42863C16.2217 8.00441 16.1087 8.75621 15.7803 10.7268L17.7531 11.0555ZM13.394 4.18882C14.8539 4.654 15.9197 5.91219 16.1386 7.42863L18.1181 7.14295C17.7898 4.86828 16.191 2.98099 14.0013 2.28322L13.394 4.18882ZM10.0819 2C8.24619 2 7.08962 1.98781 6.16254 2.28322L6.76976 4.18882C7.32405 4.01219 8.08419 4 10.0819 4V2ZM4.38349 10.7268C4.05507 8.75621 3.94213 8.00441 4.02522 7.42863L2.04573 7.14295C1.90675 8.10598 2.10891 9.24482 2.4107 11.0556L4.38349 10.7268ZM6.16254 2.28322C3.97279 2.98099 2.37402 4.86828 2.04573 7.14295L4.02522 7.42863C4.24408 5.91219 5.30993 4.654 6.76976 4.18882L6.16254 2.28322ZM19.0819 12C19.0819 13.1046 18.1865 14 17.0819 14V16C19.291 16 21.0819 14.2091 21.0819 12H19.0819ZM17.0819 10C18.1865 10 19.0819 10.8954 19.0819 12H21.0819C21.0819 9.79086 19.291 8 17.0819 8V10ZM17.0819 14C16.8464 14 16.6224 13.9597 16.4152 13.8865L15.7487 15.7721C16.167 15.92 16.6162 16 17.0819 16V14ZM8.1086 15.7352L7.06671 9.82635L5.0971 10.1736L6.13899 16.0825L8.1086 15.7352Z" fill="black"/>
</svg>
