<svg width="24" height="24" viewBox="0 0 24 24" fill="none" xmlns="http://www.w3.org/2000/svg">
<path d="M5 6H12M19 6H12M12 6C12 4.5 13 3 13.5 2.5M18 9.99988C18 10.5522 17.5523 10.9999 17 10.9999C16.4477 10.9999 16 10.5522 16 9.99988C16 9.44759 16.4477 8.99988 17 8.99988C17.5523 8.99988 18 9.44759 18 9.99988ZM13 9.99988C13 10.5522 12.5523 10.9999 12 10.9999C11.4477 10.9999 11 10.5522 11 9.99988C11 9.44759 11.4477 8.99988 12 8.99988C12.5523 8.99988 13 9.44759 13 9.99988ZM8 9.99988C8 10.5522 7.55228 10.9999 7 10.9999C6.44772 10.9999 6 10.5522 6 9.99988C6 9.44759 6.44772 8.99988 7 8.99988C7.55228 8.99988 8 9.44759 8 9.99988ZM10.5 14.9999C10.5 15.5522 10.0523 15.9999 9.5 15.9999C8.94772 15.9999 8.5 15.5522 8.5 14.9999C8.5 14.4476 8.94772 13.9999 9.5 13.9999C10.0523 13.9999 10.5 14.4476 10.5 14.9999ZM15.5 14.9999C15.5 15.5522 15.0523 15.9999 14.5 15.9999C13.9477 15.9999 13.5 15.5522 13.5 14.9999C13.5 14.4476 13.9477 13.9999 14.5 13.9999C15.0523 13.9999 15.5 14.4476 15.5 14.9999ZM13 19.9999C13 20.5522 12.5523 20.9999 12 20.9999C11.4477 20.9999 11 20.5522 11 19.9999C11 19.4476 11.4477 18.9999 12 18.9999C12.5523 18.9999 13 19.4476 13 19.9999Z" stroke="black" stroke-width="2" stroke-linecap="round" stroke-linejoin="round"/>
</svg>
