<svg width="24" height="24" viewBox="0 0 24 24" fill="none" xmlns="http://www.w3.org/2000/svg">
<path d="M7.17943 14.4905L18.6699 3L19.0942 3.42426C20.6851 5.01514 21.4805 5.81058 21.633 6.77334C21.6822 7.08427 21.6822 7.40101 21.633 7.71194C21.4805 8.6747 20.6851 9.47014 19.0942 11.061L13.3314 16.8238C12.2769 17.8783 10.5672 17.8783 9.51274 16.8238V16.8238M7.17943 14.4905L3.92667 17.7432C3.49731 18.1726 3.28263 18.3873 3.21179 18.6384C3.1617 18.8159 3.1617 19.0039 3.21179 19.1814C3.28263 19.4325 3.49731 19.6472 3.92667 20.0766V20.0766C4.35603 20.5059 4.57071 20.7206 4.82181 20.7914C4.99935 20.8415 5.18729 20.8415 5.36484 20.7914C5.61594 20.7206 5.83062 20.5059 6.25998 20.0766L9.51274 16.8238M7.17943 14.4905L9.51274 16.8238" stroke="black" stroke-width="2"/>
</svg>
